<svg width="600" height="600" transform="translate(250 200)">
<g id="cluster-0" fill="white">
	<circle cx="124.000" cy="172.500" r="6"/>
	<circle cx="285.500" cy="-17.500" r="6"/>
	<circle cx="0.000" cy="-76.500" r="6"/>
	<circle cx="291.500" cy="-27.500" r="6"/>
	<circle cx="256.000" cy="45.500" r="6"/>
	<circle cx="-10.000" cy="37.500" r="6"/>
	<circle cx="-155.000" cy="337.500" r="6"/>
	<circle cx="70.500" cy="20.000" r="6"/>
	<circle cx="59.500" cy="221.500" r="6"/>
	<circle cx="180.500" cy="183.000" r="6"/>
	<circle cx="120.000" cy="331.000" r="6"/>
	<circle cx="109.000" cy="155.500" r="6"/>
	<circle cx="111.000" cy="129.500" r="6"/>
	<circle cx="259.000" cy="329.500" r="6"/>
	<circle cx="77.500" cy="161.000" r="6"/>
</g>
<g id="cluster-area-1" stroke="blue" fill="blue" fill-opacity="0.05">
	<circle cx="-114.000" cy="50.000" r="35"/>
	<circle cx="-141.500" cy="46.500" r="35"/>
	<circle cx="-126.000" cy="32.000" r="35"/>
	<circle cx="-99.000" cy="50.500" r="35"/>
	<circle cx="-90.500" cy="40.000" r="35"/>
	<circle cx="-173.000" cy="32.500" r="35"/>
	<circle cx="-154.000" cy="37.500" r="35"/>
	<circle cx="-72.500" cy="33.000" r="35"/>
	<circle cx="-61.000" cy="41.000" r="35"/>
</g>
<g id="cluster-1" fill="blue">
	<circle cx="-114.000" cy="50.000" r="6"/>
	<circle cx="-141.500" cy="46.500" r="6"/>
	<circle cx="-126.000" cy="32.000" r="6"/>
	<circle cx="-99.000" cy="50.500" r="6"/>
	<circle cx="-90.500" cy="40.000" r="6"/>
	<circle cx="-173.000" cy="32.500" r="6"/>
	<circle cx="-154.000" cy="37.500" r="6"/>
	<circle cx="-72.500" cy="33.000" r="6"/>
	<circle cx="-61.000" cy="41.000" r="6"/>
</g>
<g id="cluster-area-2" stroke="red" fill="red" fill-opacity="0.05">
	<circle cx="-96.000" cy="-33.000" r="35"/>
	<circle cx="-76.000" cy="-5.500" r="35"/>
	<circle cx="-82.000" cy="-28.000" r="35"/>
	<circle cx="-126.500" cy="-26.500" r="35"/>
	<circle cx="-106.500" cy="-54.000" r="35"/>
	<circle cx="-106.000" cy="-18.000" r="35"/>
	<circle cx="-86.000" cy="-24.000" r="35"/>
	<circle cx="-96.000" cy="-36.500" r="35"/>
	<circle cx="-62.000" cy="-39.500" r="35"/>
	<circle cx="-65.500" cy="-12.000" r="35"/>
	<circle cx="-120.500" cy="-7.000" r="35"/>
	<circle cx="-144.500" cy="-10.000" r="35"/>
	<circle cx="-159.500" cy="-28.000" r="35"/>
	<circle cx="-140.500" cy="-17.500" r="35"/>
	<circle cx="-128.500" cy="-64.000" r="35"/>
	<circle cx="-61.500" cy="-56.500" r="35"/>
	<circle cx="-167.000" cy="-60.000" r="35"/>
	<circle cx="-129.000" cy="-88.000" r="35"/>
	<circle cx="-141.000" cy="-68.000" r="35"/>
	<circle cx="-139.500" cy="-75.500" r="35"/>
	<circle cx="-145.500" cy="-87.000" r="35"/>
	<circle cx="-160.000" cy="-83.000" r="35"/>
	<circle cx="-189.500" cy="-66.500" r="35"/>
	<circle cx="-148.000" cy="-96.500" r="35"/>
	<circle cx="-114.000" cy="-109.000" r="35"/>
	<circle cx="-139.000" cy="-110.000" r="35"/>
	<circle cx="-149.500" cy="-121.500" r="35"/>
	<circle cx="-162.500" cy="-104.500" r="35"/>
	<circle cx="-184.500" cy="-107.000" r="35"/>
	<circle cx="-149.000" cy="-130.000" r="35"/>
	<circle cx="-173.500" cy="-116.500" r="35"/>
	<circle cx="-163.000" cy="-126.000" r="35"/>
	<circle cx="-141.500" cy="-133.500" r="35"/>
	<circle cx="-173.000" cy="-131.000" r="35"/>
	<circle cx="-187.500" cy="-139.500" r="35"/>
</g>
<g id="cluster-2" fill="red">
	<circle cx="-96.000" cy="-33.000" r="6"/>
	<circle cx="-76.000" cy="-5.500" r="6"/>
	<circle cx="-82.000" cy="-28.000" r="6"/>
	<circle cx="-126.500" cy="-26.500" r="6"/>
	<circle cx="-106.500" cy="-54.000" r="6"/>
	<circle cx="-106.000" cy="-18.000" r="6"/>
	<circle cx="-86.000" cy="-24.000" r="6"/>
	<circle cx="-96.000" cy="-36.500" r="6"/>
	<circle cx="-62.000" cy="-39.500" r="6"/>
	<circle cx="-65.500" cy="-12.000" r="6"/>
	<circle cx="-120.500" cy="-7.000" r="6"/>
	<circle cx="-144.500" cy="-10.000" r="6"/>
	<circle cx="-159.500" cy="-28.000" r="6"/>
	<circle cx="-140.500" cy="-17.500" r="6"/>
	<circle cx="-128.500" cy="-64.000" r="6"/>
	<circle cx="-61.500" cy="-56.500" r="6"/>
	<circle cx="-167.000" cy="-60.000" r="6"/>
	<circle cx="-129.000" cy="-88.000" r="6"/>
	<circle cx="-141.000" cy="-68.000" r="6"/>
	<circle cx="-139.500" cy="-75.500" r="6"/>
	<circle cx="-145.500" cy="-87.000" r="6"/>
	<circle cx="-160.000" cy="-83.000" r="6"/>
	<circle cx="-189.500" cy="-66.500" r="6"/>
	<circle cx="-148.000" cy="-96.500" r="6"/>
	<circle cx="-114.000" cy="-109.000" r="6"/>
	<circle cx="-139.000" cy="-110.000" r="6"/>
	<circle cx="-149.500" cy="-121.500" r="6"/>
	<circle cx="-162.500" cy="-104.500" r="6"/>
	<circle cx="-184.500" cy="-107.000" r="6"/>
	<circle cx="-149.000" cy="-130.000" r="6"/>
	<circle cx="-173.500" cy="-116.500" r="6"/>
	<circle cx="-163.000" cy="-126.000" r="6"/>
	<circle cx="-141.500" cy="-133.500" r="6"/>
	<circle cx="-173.000" cy="-131.000" r="6"/>
	<circle cx="-187.500" cy="-139.500" r="6"/>
</g>
<g id="cluster-area-3" stroke="green" fill="green" fill-opacity="0.05">
	<circle cx="225.500" cy="198.500" r="35"/>
	<circle cx="227.500" cy="180.500" r="35"/>
	<circle cx="239.000" cy="217.500" r="35"/>
	<circle cx="251.500" cy="178.000" r="35"/>
	<circle cx="241.500" cy="177.000" r="35"/>
	<circle cx="240.000" cy="176.000" r="35"/>
	<circle cx="249.500" cy="197.500" r="35"/>
	<circle cx="235.000" cy="189.000" r="35"/>
	<circle cx="254.500" cy="211.000" r="35"/>
	<circle cx="257.000" cy="209.000" r="35"/>
	<circle cx="246.500" cy="184.000" r="35"/>
	<circle cx="246.500" cy="189.000" r="35"/>
	<circle cx="242.000" cy="191.000" r="35"/>
	<circle cx="251.500" cy="182.000" r="35"/>
	<circle cx="251.000" cy="202.000" r="35"/>
	<circle cx="269.500" cy="215.500" r="35"/>
	<circle cx="265.000" cy="203.000" r="35"/>
	<circle cx="257.500" cy="218.000" r="35"/>
	<circle cx="273.000" cy="217.500" r="35"/>
	<circle cx="265.500" cy="181.000" r="35"/>
</g>
<g id="cluster-3" fill="green">
	<circle cx="225.500" cy="198.500" r="6"/>
	<circle cx="227.500" cy="180.500" r="6"/>
	<circle cx="239.000" cy="217.500" r="6"/>
	<circle cx="251.500" cy="178.000" r="6"/>
	<circle cx="241.500" cy="177.000" r="6"/>
	<circle cx="240.000" cy="176.000" r="6"/>
	<circle cx="249.500" cy="197.500" r="6"/>
	<circle cx="235.000" cy="189.000" r="6"/>
	<circle cx="254.500" cy="211.000" r="6"/>
	<circle cx="257.000" cy="209.000" r="6"/>
	<circle cx="246.500" cy="184.000" r="6"/>
	<circle cx="246.500" cy="189.000" r="6"/>
	<circle cx="242.000" cy="191.000" r="6"/>
	<circle cx="251.500" cy="182.000" r="6"/>
	<circle cx="251.000" cy="202.000" r="6"/>
	<circle cx="269.500" cy="215.500" r="6"/>
	<circle cx="265.000" cy="203.000" r="6"/>
	<circle cx="257.500" cy="218.000" r="6"/>
	<circle cx="273.000" cy="217.500" r="6"/>
	<circle cx="265.500" cy="181.000" r="6"/>
</g>
<g id="cluster-area-4" stroke="purple" fill="purple" fill-opacity="0.05">
	<circle cx="-64.500" cy="124.500" r="35"/>
	<circle cx="-63.000" cy="155.000" r="35"/>
	<circle cx="-78.000" cy="120.500" r="35"/>
	<circle cx="-70.500" cy="122.500" r="35"/>
	<circle cx="-83.000" cy="133.000" r="35"/>
	<circle cx="-33.000" cy="139.000" r="35"/>
	<circle cx="-86.500" cy="164.000" r="35"/>
	<circle cx="-90.500" cy="154.500" r="35"/>
	<circle cx="-62.500" cy="188.500" r="35"/>
	<circle cx="-36.000" cy="176.000" r="35"/>
	<circle cx="-32.000" cy="139.500" r="35"/>
	<circle cx="-97.000" cy="160.500" r="35"/>
	<circle cx="-21.500" cy="125.000" r="35"/>
	<circle cx="-7.500" cy="151.500" r="35"/>
	<circle cx="-16.000" cy="153.000" r="35"/>
	<circle cx="-12.000" cy="158.500" r="35"/>
	<circle cx="-29.500" cy="194.000" r="35"/>
	<circle cx="-54.500" cy="198.000" r="35"/>
	<circle cx="-22.000" cy="184.500" r="35"/>
	<circle cx="-2.000" cy="103.000" r="35"/>
</g>
<g id="cluster-4" fill="purple">
	<circle cx="-64.500" cy="124.500" r="6"/>
	<circle cx="-63.000" cy="155.000" r="6"/>
	<circle cx="-78.000" cy="120.500" r="6"/>
	<circle cx="-70.500" cy="122.500" r="6"/>
	<circle cx="-83.000" cy="133.000" r="6"/>
	<circle cx="-33.000" cy="139.000" r="6"/>
	<circle cx="-86.500" cy="164.000" r="6"/>
	<circle cx="-90.500" cy="154.500" r="6"/>
	<circle cx="-62.500" cy="188.500" r="6"/>
	<circle cx="-36.000" cy="176.000" r="6"/>
	<circle cx="-32.000" cy="139.500" r="6"/>
	<circle cx="-97.000" cy="160.500" r="6"/>
	<circle cx="-21.500" cy="125.000" r="6"/>
	<circle cx="-7.500" cy="151.500" r="6"/>
	<circle cx="-16.000" cy="153.000" r="6"/>
	<circle cx="-12.000" cy="158.500" r="6"/>
	<circle cx="-29.500" cy="194.000" r="6"/>
	<circle cx="-54.500" cy="198.000" r="6"/>
	<circle cx="-22.000" cy="184.500" r="6"/>
	<circle cx="-2.000" cy="103.000" r="6"/>
</g>
</svg>
