<svg width="1100" height="700" transform="translate(600 400)">
<rect x="-600" y="-400" width="1100" height="700" fill="white"/>
<g id="cluster--1" fill="black">
</g>
<g id="cluster-area-0" stroke="blue" fill="blue" fill-opacity="0.04">
	<circle cx="397" cy="-13" r="50"/>
	<circle cx="386" cy="12" r="50"/>
	<circle cx="376" cy="13" r="50"/>
	<circle cx="375" cy="-50" r="50"/>
	<circle cx="355" cy="-38" r="50"/>
	<circle cx="361" cy="-14" r="50"/>
	<circle cx="395" cy="-19" r="50"/>
	<circle cx="393" cy="-24" r="50"/>
	<circle cx="362" cy="-2" r="50"/>
	<circle cx="363" cy="22" r="50"/>
	<circle cx="379" cy="-53" r="50"/>
	<circle cx="387" cy="-46" r="50"/>
	<circle cx="399" cy="-40" r="50"/>
	<circle cx="369" cy="44" r="50"/>
	<circle cx="369" cy="33" r="50"/>
	<circle cx="369" cy="33" r="50"/>
	<circle cx="352" cy="43" r="50"/>
	<circle cx="370" cy="59" r="50"/>
	<circle cx="350" cy="-93" r="50"/>
	<circle cx="353" cy="-85" r="50"/>
	<circle cx="348" cy="-63" r="50"/>
	<circle cx="364" cy="-59" r="50"/>
	<circle cx="343" cy="-87" r="50"/>
	<circle cx="351" cy="-89" r="50"/>
	<circle cx="332" cy="39" r="50"/>
	<circle cx="348" cy="64" r="50"/>
	<circle cx="350" cy="66" r="50"/>
	<circle cx="353" cy="72" r="50"/>
	<circle cx="332" cy="77" r="50"/>
	<circle cx="312" cy="70" r="50"/>
	<circle cx="337" cy="-140" r="50"/>
	<circle cx="322" cy="-98" r="50"/>
	<circle cx="330" cy="-127" r="50"/>
	<circle cx="350" cy="-117" r="50"/>
	<circle cx="367" cy="-110" r="50"/>
	<circle cx="298" cy="102" r="50"/>
	<circle cx="317" cy="108" r="50"/>
	<circle cx="299" cy="104" r="50"/>
	<circle cx="291" cy="97" r="50"/>
	<circle cx="292" cy="88" r="50"/>
	<circle cx="295" cy="92" r="50"/>
	<circle cx="299" cy="-155" r="50"/>
	<circle cx="310" cy="-132" r="50"/>
	<circle cx="311" cy="-126" r="50"/>
	<circle cx="291" cy="116" r="50"/>
	<circle cx="259" cy="123" r="50"/>
	<circle cx="252" cy="125" r="50"/>
	<circle cx="259" cy="-174" r="50"/>
	<circle cx="257" cy="-155" r="50"/>
	<circle cx="293" cy="-165" r="50"/>
	<circle cx="276" cy="-168" r="50"/>
	<circle cx="292" cy="-167" r="50"/>
	<circle cx="243" cy="112" r="50"/>
	<circle cx="218" cy="129" r="50"/>
	<circle cx="221" cy="157" r="50"/>
	<circle cx="231" cy="-195" r="50"/>
	<circle cx="254" cy="-181" r="50"/>
	<circle cx="220" cy="-201" r="50"/>
	<circle cx="233" cy="-190" r="50"/>
	<circle cx="234" cy="-185" r="50"/>
	<circle cx="179" cy="153" r="50"/>
	<circle cx="210" cy="157" r="50"/>
	<circle cx="181" cy="146" r="50"/>
	<circle cx="190" cy="-189" r="50"/>
	<circle cx="188" cy="-171" r="50"/>
	<circle cx="183" cy="-212" r="50"/>
	<circle cx="163" cy="148" r="50"/>
	<circle cx="161" cy="152" r="50"/>
	<circle cx="139" cy="163" r="50"/>
	<circle cx="162" cy="147" r="50"/>
	<circle cx="132" cy="143" r="50"/>
	<circle cx="143" cy="155" r="50"/>
	<circle cx="160" cy="-198" r="50"/>
	<circle cx="173" cy="-179" r="50"/>
	<circle cx="144" cy="-212" r="50"/>
	<circle cx="115" cy="160" r="50"/>
	<circle cx="125" cy="-195" r="50"/>
	<circle cx="119" cy="-218" r="50"/>
	<circle cx="108" cy="-224" r="50"/>
	<circle cx="88" cy="186" r="50"/>
	<circle cx="78" cy="191" r="50"/>
	<circle cx="74" cy="155" r="50"/>
	<circle cx="97" cy="-192" r="50"/>
	<circle cx="73" cy="-220" r="50"/>
	<circle cx="68" cy="-196" r="50"/>
	<circle cx="68" cy="-198" r="50"/>
	<circle cx="44" cy="177" r="50"/>
	<circle cx="47" cy="184" r="50"/>
	<circle cx="68" cy="185" r="50"/>
	<circle cx="40" cy="159" r="50"/>
	<circle cx="41" cy="-222" r="50"/>
	<circle cx="46" cy="-218" r="50"/>
	<circle cx="28" cy="-207" r="50"/>
	<circle cx="-2" cy="188" r="50"/>
	<circle cx="10" cy="184" r="50"/>
	<circle cx="-6" cy="161" r="50"/>
	<circle cx="5" cy="-207" r="50"/>
	<circle cx="3" cy="-234" r="50"/>
	<circle cx="-24" cy="176" r="50"/>
	<circle cx="-55" cy="160" r="50"/>
	<circle cx="-51" cy="170" r="50"/>
	<circle cx="-38" cy="-230" r="50"/>
	<circle cx="-28" cy="-218" r="50"/>
	<circle cx="-22" cy="-212" r="50"/>
	<circle cx="-55" cy="183" r="50"/>
	<circle cx="-87" cy="185" r="50"/>
	<circle cx="-101" cy="169" r="50"/>
	<circle cx="-53" cy="-236" r="50"/>
	<circle cx="-77" cy="-234" r="50"/>
	<circle cx="-107" cy="173" r="50"/>
	<circle cx="-109" cy="172" r="50"/>
	<circle cx="-118" cy="158" r="50"/>
	<circle cx="-145" cy="172" r="50"/>
	<circle cx="-78" cy="-198" r="50"/>
	<circle cx="-86" cy="-205" r="50"/>
	<circle cx="-116" cy="-215" r="50"/>
	<circle cx="-124" cy="-230" r="50"/>
	<circle cx="-103" cy="-216" r="50"/>
	<circle cx="-162" cy="151" r="50"/>
	<circle cx="-162" cy="149" r="50"/>
	<circle cx="-161" cy="153" r="50"/>
	<circle cx="-188" cy="178" r="50"/>
	<circle cx="-190" cy="176" r="50"/>
	<circle cx="-132" cy="-196" r="50"/>
	<circle cx="-157" cy="-199" r="50"/>
	<circle cx="-137" cy="-192" r="50"/>
	<circle cx="-200" cy="162" r="50"/>
	<circle cx="-218" cy="157" r="50"/>
	<circle cx="-172" cy="-189" r="50"/>
	<circle cx="-206" cy="-206" r="50"/>
	<circle cx="-184" cy="-193" r="50"/>
	<circle cx="-195" cy="-184" r="50"/>
	<circle cx="-246" cy="144" r="50"/>
	<circle cx="-243" cy="136" r="50"/>
	<circle cx="-250" cy="163" r="50"/>
	<circle cx="-257" cy="152" r="50"/>
	<circle cx="-207" cy="-191" r="50"/>
	<circle cx="-235" cy="-191" r="50"/>
	<circle cx="-249" cy="-183" r="50"/>
	<circle cx="-249" cy="-196" r="50"/>
	<circle cx="-289" cy="120" r="50"/>
	<circle cx="-271" cy="146" r="50"/>
	<circle cx="-261" cy="-176" r="50"/>
	<circle cx="-290" cy="-186" r="50"/>
	<circle cx="-276" cy="-161" r="50"/>
	<circle cx="-284" cy="-171" r="50"/>
	<circle cx="-294" cy="112" r="50"/>
	<circle cx="-331" cy="111" r="50"/>
	<circle cx="-306" cy="131" r="50"/>
	<circle cx="-307" cy="125" r="50"/>
	<circle cx="-305" cy="-164" r="50"/>
	<circle cx="-301" cy="-156" r="50"/>
	<circle cx="-328" cy="-167" r="50"/>
	<circle cx="-311" cy="-159" r="50"/>
	<circle cx="-341" cy="101" r="50"/>
	<circle cx="-344" cy="109" r="50"/>
	<circle cx="-344" cy="87" r="50"/>
	<circle cx="-346" cy="115" r="50"/>
	<circle cx="-341" cy="90" r="50"/>
	<circle cx="-344" cy="88" r="50"/>
	<circle cx="-371" cy="91" r="50"/>
	<circle cx="-324" cy="-137" r="50"/>
	<circle cx="-344" cy="-152" r="50"/>
	<circle cx="-328" cy="-122" r="50"/>
	<circle cx="-340" cy="-126" r="50"/>
	<circle cx="-385" cy="75" r="50"/>
	<circle cx="-373" cy="50" r="50"/>
	<circle cx="-384" cy="69" r="50"/>
	<circle cx="-384" cy="47" r="50"/>
	<circle cx="-365" cy="-130" r="50"/>
	<circle cx="-379" cy="-125" r="50"/>
	<circle cx="-375" cy="-143" r="50"/>
	<circle cx="-371" cy="-105" r="50"/>
	<circle cx="-376" cy="-106" r="50"/>
	<circle cx="-419" cy="49" r="50"/>
	<circle cx="-408" cy="43" r="50"/>
	<circle cx="-406" cy="54" r="50"/>
	<circle cx="-419" cy="39" r="50"/>
	<circle cx="-397" cy="46" r="50"/>
	<circle cx="-394" cy="24" r="50"/>
	<circle cx="-401" cy="23" r="50"/>
	<circle cx="-409" cy="12" r="50"/>
	<circle cx="-425" cy="24" r="50"/>
	<circle cx="-400" cy="-109" r="50"/>
	<circle cx="-417" cy="-94" r="50"/>
	<circle cx="-407" cy="-92" r="50"/>
	<circle cx="-406" cy="-70" r="50"/>
	<circle cx="-389" cy="-64" r="50"/>
	<circle cx="-383" cy="-63" r="50"/>
	<circle cx="-432" cy="24" r="50"/>
	<circle cx="-435" cy="-4" r="50"/>
	<circle cx="-425" cy="-6" r="50"/>
	<circle cx="-414" cy="-30" r="50"/>
	<circle cx="-415" cy="-28" r="50"/>
	<circle cx="-417" cy="-36" r="50"/>
	<circle cx="-406" cy="-34" r="50"/>
	<circle cx="-410" cy="-58" r="50"/>
	<circle cx="-410" cy="-56" r="50"/>
	<circle cx="-403" cy="-43" r="50"/>
</g>
<g id="cluster-0" fill="blue">
	<circle cx="397" cy="-13" r="9"/>
	<circle cx="386" cy="12" r="9"/>
	<circle cx="376" cy="13" r="9"/>
	<circle cx="375" cy="-50" r="9"/>
	<circle cx="355" cy="-38" r="9"/>
	<circle cx="361" cy="-14" r="9"/>
	<circle cx="395" cy="-19" r="9"/>
	<circle cx="393" cy="-24" r="9"/>
	<circle cx="362" cy="-2" r="9"/>
	<circle cx="363" cy="22" r="9"/>
	<circle cx="379" cy="-53" r="9"/>
	<circle cx="387" cy="-46" r="9"/>
	<circle cx="399" cy="-40" r="9"/>
	<circle cx="369" cy="44" r="9"/>
	<circle cx="369" cy="33" r="9"/>
	<circle cx="369" cy="33" r="9"/>
	<circle cx="352" cy="43" r="9"/>
	<circle cx="370" cy="59" r="9"/>
	<circle cx="350" cy="-93" r="9"/>
	<circle cx="353" cy="-85" r="9"/>
	<circle cx="348" cy="-63" r="9"/>
	<circle cx="364" cy="-59" r="9"/>
	<circle cx="343" cy="-87" r="9"/>
	<circle cx="351" cy="-89" r="9"/>
	<circle cx="332" cy="39" r="9"/>
	<circle cx="348" cy="64" r="9"/>
	<circle cx="350" cy="66" r="9"/>
	<circle cx="353" cy="72" r="9"/>
	<circle cx="332" cy="77" r="9"/>
	<circle cx="312" cy="70" r="9"/>
	<circle cx="337" cy="-140" r="9"/>
	<circle cx="322" cy="-98" r="9"/>
	<circle cx="330" cy="-127" r="9"/>
	<circle cx="350" cy="-117" r="9"/>
	<circle cx="367" cy="-110" r="9"/>
	<circle cx="298" cy="102" r="9"/>
	<circle cx="317" cy="108" r="9"/>
	<circle cx="299" cy="104" r="9"/>
	<circle cx="291" cy="97" r="9"/>
	<circle cx="292" cy="88" r="9"/>
	<circle cx="295" cy="92" r="9"/>
	<circle cx="299" cy="-155" r="9"/>
	<circle cx="310" cy="-132" r="9"/>
	<circle cx="311" cy="-126" r="9"/>
	<circle cx="291" cy="116" r="9"/>
	<circle cx="259" cy="123" r="9"/>
	<circle cx="252" cy="125" r="9"/>
	<circle cx="259" cy="-174" r="9"/>
	<circle cx="257" cy="-155" r="9"/>
	<circle cx="293" cy="-165" r="9"/>
	<circle cx="276" cy="-168" r="9"/>
	<circle cx="292" cy="-167" r="9"/>
	<circle cx="243" cy="112" r="9"/>
	<circle cx="218" cy="129" r="9"/>
	<circle cx="221" cy="157" r="9"/>
	<circle cx="231" cy="-195" r="9"/>
	<circle cx="254" cy="-181" r="9"/>
	<circle cx="220" cy="-201" r="9"/>
	<circle cx="233" cy="-190" r="9"/>
	<circle cx="234" cy="-185" r="9"/>
	<circle cx="179" cy="153" r="9"/>
	<circle cx="210" cy="157" r="9"/>
	<circle cx="181" cy="146" r="9"/>
	<circle cx="190" cy="-189" r="9"/>
	<circle cx="188" cy="-171" r="9"/>
	<circle cx="183" cy="-212" r="9"/>
	<circle cx="163" cy="148" r="9"/>
	<circle cx="161" cy="152" r="9"/>
	<circle cx="139" cy="163" r="9"/>
	<circle cx="162" cy="147" r="9"/>
	<circle cx="132" cy="143" r="9"/>
	<circle cx="143" cy="155" r="9"/>
	<circle cx="160" cy="-198" r="9"/>
	<circle cx="173" cy="-179" r="9"/>
	<circle cx="144" cy="-212" r="9"/>
	<circle cx="115" cy="160" r="9"/>
	<circle cx="125" cy="-195" r="9"/>
	<circle cx="119" cy="-218" r="9"/>
	<circle cx="108" cy="-224" r="9"/>
	<circle cx="88" cy="186" r="9"/>
	<circle cx="78" cy="191" r="9"/>
	<circle cx="74" cy="155" r="9"/>
	<circle cx="97" cy="-192" r="9"/>
	<circle cx="73" cy="-220" r="9"/>
	<circle cx="68" cy="-196" r="9"/>
	<circle cx="68" cy="-198" r="9"/>
	<circle cx="44" cy="177" r="9"/>
	<circle cx="47" cy="184" r="9"/>
	<circle cx="68" cy="185" r="9"/>
	<circle cx="40" cy="159" r="9"/>
	<circle cx="41" cy="-222" r="9"/>
	<circle cx="46" cy="-218" r="9"/>
	<circle cx="28" cy="-207" r="9"/>
	<circle cx="-2" cy="188" r="9"/>
	<circle cx="10" cy="184" r="9"/>
	<circle cx="-6" cy="161" r="9"/>
	<circle cx="5" cy="-207" r="9"/>
	<circle cx="3" cy="-234" r="9"/>
	<circle cx="-24" cy="176" r="9"/>
	<circle cx="-55" cy="160" r="9"/>
	<circle cx="-51" cy="170" r="9"/>
	<circle cx="-38" cy="-230" r="9"/>
	<circle cx="-28" cy="-218" r="9"/>
	<circle cx="-22" cy="-212" r="9"/>
	<circle cx="-55" cy="183" r="9"/>
	<circle cx="-87" cy="185" r="9"/>
	<circle cx="-101" cy="169" r="9"/>
	<circle cx="-53" cy="-236" r="9"/>
	<circle cx="-77" cy="-234" r="9"/>
	<circle cx="-107" cy="173" r="9"/>
	<circle cx="-109" cy="172" r="9"/>
	<circle cx="-118" cy="158" r="9"/>
	<circle cx="-145" cy="172" r="9"/>
	<circle cx="-78" cy="-198" r="9"/>
	<circle cx="-86" cy="-205" r="9"/>
	<circle cx="-116" cy="-215" r="9"/>
	<circle cx="-124" cy="-230" r="9"/>
	<circle cx="-103" cy="-216" r="9"/>
	<circle cx="-162" cy="151" r="9"/>
	<circle cx="-162" cy="149" r="9"/>
	<circle cx="-161" cy="153" r="9"/>
	<circle cx="-188" cy="178" r="9"/>
	<circle cx="-190" cy="176" r="9"/>
	<circle cx="-132" cy="-196" r="9"/>
	<circle cx="-157" cy="-199" r="9"/>
	<circle cx="-137" cy="-192" r="9"/>
	<circle cx="-200" cy="162" r="9"/>
	<circle cx="-218" cy="157" r="9"/>
	<circle cx="-172" cy="-189" r="9"/>
	<circle cx="-206" cy="-206" r="9"/>
	<circle cx="-184" cy="-193" r="9"/>
	<circle cx="-195" cy="-184" r="9"/>
	<circle cx="-246" cy="144" r="9"/>
	<circle cx="-243" cy="136" r="9"/>
	<circle cx="-250" cy="163" r="9"/>
	<circle cx="-257" cy="152" r="9"/>
	<circle cx="-207" cy="-191" r="9"/>
	<circle cx="-235" cy="-191" r="9"/>
	<circle cx="-249" cy="-183" r="9"/>
	<circle cx="-249" cy="-196" r="9"/>
	<circle cx="-289" cy="120" r="9"/>
	<circle cx="-271" cy="146" r="9"/>
	<circle cx="-261" cy="-176" r="9"/>
	<circle cx="-290" cy="-186" r="9"/>
	<circle cx="-276" cy="-161" r="9"/>
	<circle cx="-284" cy="-171" r="9"/>
	<circle cx="-294" cy="112" r="9"/>
	<circle cx="-331" cy="111" r="9"/>
	<circle cx="-306" cy="131" r="9"/>
	<circle cx="-307" cy="125" r="9"/>
	<circle cx="-305" cy="-164" r="9"/>
	<circle cx="-301" cy="-156" r="9"/>
	<circle cx="-328" cy="-167" r="9"/>
	<circle cx="-311" cy="-159" r="9"/>
	<circle cx="-341" cy="101" r="9"/>
	<circle cx="-344" cy="109" r="9"/>
	<circle cx="-344" cy="87" r="9"/>
	<circle cx="-346" cy="115" r="9"/>
	<circle cx="-341" cy="90" r="9"/>
	<circle cx="-344" cy="88" r="9"/>
	<circle cx="-371" cy="91" r="9"/>
	<circle cx="-324" cy="-137" r="9"/>
	<circle cx="-344" cy="-152" r="9"/>
	<circle cx="-328" cy="-122" r="9"/>
	<circle cx="-340" cy="-126" r="9"/>
	<circle cx="-385" cy="75" r="9"/>
	<circle cx="-373" cy="50" r="9"/>
	<circle cx="-384" cy="69" r="9"/>
	<circle cx="-384" cy="47" r="9"/>
	<circle cx="-365" cy="-130" r="9"/>
	<circle cx="-379" cy="-125" r="9"/>
	<circle cx="-375" cy="-143" r="9"/>
	<circle cx="-371" cy="-105" r="9"/>
	<circle cx="-376" cy="-106" r="9"/>
	<circle cx="-419" cy="49" r="9"/>
	<circle cx="-408" cy="43" r="9"/>
	<circle cx="-406" cy="54" r="9"/>
	<circle cx="-419" cy="39" r="9"/>
	<circle cx="-397" cy="46" r="9"/>
	<circle cx="-394" cy="24" r="9"/>
	<circle cx="-401" cy="23" r="9"/>
	<circle cx="-409" cy="12" r="9"/>
	<circle cx="-425" cy="24" r="9"/>
	<circle cx="-400" cy="-109" r="9"/>
	<circle cx="-417" cy="-94" r="9"/>
	<circle cx="-407" cy="-92" r="9"/>
	<circle cx="-406" cy="-70" r="9"/>
	<circle cx="-389" cy="-64" r="9"/>
	<circle cx="-383" cy="-63" r="9"/>
	<circle cx="-432" cy="24" r="9"/>
	<circle cx="-435" cy="-4" r="9"/>
	<circle cx="-425" cy="-6" r="9"/>
	<circle cx="-414" cy="-30" r="9"/>
	<circle cx="-415" cy="-28" r="9"/>
	<circle cx="-417" cy="-36" r="9"/>
	<circle cx="-406" cy="-34" r="9"/>
	<circle cx="-410" cy="-58" r="9"/>
	<circle cx="-410" cy="-56" r="9"/>
	<circle cx="-403" cy="-43" r="9"/>
</g>
<g id="cluster-area-1" stroke="red" fill="red" fill-opacity="0.04">
	<circle cx="190" cy="-28" r="50"/>
	<circle cx="193" cy="-33" r="50"/>
	<circle cx="169" cy="-24" r="50"/>
	<circle cx="177" cy="11" r="50"/>
	<circle cx="172" cy="13" r="50"/>
	<circle cx="160" cy="10" r="50"/>
	<circle cx="155" cy="-60" r="50"/>
	<circle cx="170" cy="-67" r="50"/>
	<circle cx="162" cy="-55" r="50"/>
	<circle cx="152" cy="-53" r="50"/>
	<circle cx="170" cy="-61" r="50"/>
	<circle cx="185" cy="-29" r="50"/>
	<circle cx="195" cy="-51" r="50"/>
	<circle cx="199" cy="-29" r="50"/>
	<circle cx="199" cy="-39" r="50"/>
	<circle cx="195" cy="5" r="50"/>
	<circle cx="193" cy="-7" r="50"/>
	<circle cx="188" cy="15" r="50"/>
	<circle cx="176" cy="0" r="50"/>
	<circle cx="173" cy="-47" r="50"/>
	<circle cx="183" cy="-40" r="50"/>
	<circle cx="150" cy="-59" r="50"/>
	<circle cx="180" cy="-62" r="50"/>
	<circle cx="184" cy="-28" r="50"/>
	<circle cx="169" cy="-49" r="50"/>
	<circle cx="193" cy="-17" r="50"/>
	<circle cx="164" cy="22" r="50"/>
	<circle cx="180" cy="22" r="50"/>
	<circle cx="151" cy="7" r="50"/>
	<circle cx="145" cy="-57" r="50"/>
	<circle cx="180" cy="36" r="50"/>
	<circle cx="136" cy="30" r="50"/>
	<circle cx="167" cy="26" r="50"/>
	<circle cx="167" cy="39" r="50"/>
	<circle cx="170" cy="44" r="50"/>
	<circle cx="140" cy="30" r="50"/>
	<circle cx="155" cy="44" r="50"/>
	<circle cx="127" cy="29" r="50"/>
	<circle cx="137" cy="43" r="50"/>
	<circle cx="116" cy="-75" r="50"/>
	<circle cx="141" cy="-87" r="50"/>
	<circle cx="135" cy="-74" r="50"/>
	<circle cx="136" cy="-77" r="50"/>
	<circle cx="134" cy="-74" r="50"/>
	<circle cx="129" cy="-66" r="50"/>
	<circle cx="125" cy="-72" r="50"/>
	<circle cx="141" cy="-78" r="50"/>
	<circle cx="119" cy="64" r="50"/>
	<circle cx="108" cy="44" r="50"/>
	<circle cx="109" cy="61" r="50"/>
	<circle cx="94" cy="51" r="50"/>
	<circle cx="117" cy="46" r="50"/>
	<circle cx="121" cy="64" r="50"/>
	<circle cx="108" cy="41" r="50"/>
	<circle cx="94" cy="37" r="50"/>
	<circle cx="95" cy="57" r="50"/>
	<circle cx="85" cy="42" r="50"/>
	<circle cx="103" cy="76" r="50"/>
	<circle cx="87" cy="-94" r="50"/>
	<circle cx="111" cy="-98" r="50"/>
	<circle cx="98" cy="-92" r="50"/>
	<circle cx="99" cy="-102" r="50"/>
	<circle cx="106" cy="-118" r="50"/>
	<circle cx="107" cy="-120" r="50"/>
	<circle cx="93" cy="-79" r="50"/>
	<circle cx="103" cy="-86" r="50"/>
	<circle cx="80" cy="54" r="50"/>
	<circle cx="63" cy="65" r="50"/>
	<circle cx="65" cy="76" r="50"/>
	<circle cx="59" cy="81" r="50"/>
	<circle cx="47" cy="58" r="50"/>
	<circle cx="56" cy="-107" r="50"/>
	<circle cx="60" cy="-115" r="50"/>
	<circle cx="57" cy="-102" r="50"/>
	<circle cx="53" cy="-124" r="50"/>
	<circle cx="55" cy="-98" r="50"/>
	<circle cx="58" cy="-114" r="50"/>
	<circle cx="45" cy="86" r="50"/>
	<circle cx="46" cy="84" r="50"/>
	<circle cx="31" cy="60" r="50"/>
	<circle cx="25" cy="69" r="50"/>
	<circle cx="22" cy="88" r="50"/>
	<circle cx="34" cy="92" r="50"/>
	<circle cx="17" cy="75" r="50"/>
	<circle cx="21" cy="96" r="50"/>
	<circle cx="15" cy="-102" r="50"/>
	<circle cx="47" cy="-136" r="50"/>
	<circle cx="32" cy="-114" r="50"/>
	<circle cx="16" cy="-103" r="50"/>
	<circle cx="37" cy="-136" r="50"/>
	<circle cx="14" cy="-105" r="50"/>
	<circle cx="38" cy="-122" r="50"/>
	<circle cx="6" cy="-118" r="50"/>
	<circle cx="1" cy="89" r="50"/>
	<circle cx="-1" cy="92" r="50"/>
	<circle cx="-5" cy="66" r="50"/>
	<circle cx="-21" cy="80" r="50"/>
	<circle cx="-16" cy="85" r="50"/>
	<circle cx="-23" cy="98" r="50"/>
	<circle cx="-9" cy="-102" r="50"/>
	<circle cx="-19" cy="-136" r="50"/>
	<circle cx="-14" cy="-105" r="50"/>
	<circle cx="-22" cy="-103" r="50"/>
	<circle cx="-10" cy="-104" r="50"/>
	<circle cx="-41" cy="-105" r="50"/>
	<circle cx="-36" cy="-118" r="50"/>
	<circle cx="-36" cy="71" r="50"/>
	<circle cx="-36" cy="74" r="50"/>
	<circle cx="-61" cy="63" r="50"/>
	<circle cx="-52" cy="95" r="50"/>
	<circle cx="-65" cy="72" r="50"/>
	<circle cx="-59" cy="87" r="50"/>
	<circle cx="-58" cy="78" r="50"/>
	<circle cx="-44" cy="-111" r="50"/>
	<circle cx="-51" cy="-105" r="50"/>
	<circle cx="-46" cy="-121" r="50"/>
	<circle cx="-63" cy="-114" r="50"/>
	<circle cx="-61" cy="-136" r="50"/>
	<circle cx="-66" cy="-115" r="50"/>
	<circle cx="-85" cy="-112" r="50"/>
	<circle cx="-76" cy="56" r="50"/>
	<circle cx="-70" cy="62" r="50"/>
	<circle cx="-99" cy="91" r="50"/>
	<circle cx="-98" cy="64" r="50"/>
	<circle cx="-107" cy="81" r="50"/>
	<circle cx="-111" cy="79" r="50"/>
	<circle cx="-112" cy="58" r="50"/>
	<circle cx="-113" cy="60" r="50"/>
	<circle cx="-98" cy="-102" r="50"/>
	<circle cx="-103" cy="-120" r="50"/>
	<circle cx="-106" cy="-125" r="50"/>
	<circle cx="-111" cy="-115" r="50"/>
	<circle cx="-132" cy="-116" r="50"/>
	<circle cx="-115" cy="-87" r="50"/>
	<circle cx="-123" cy="-113" r="50"/>
	<circle cx="-131" cy="-104" r="50"/>
	<circle cx="-128" cy="-124" r="50"/>
	<circle cx="-120" cy="-115" r="50"/>
	<circle cx="-125" cy="68" r="50"/>
	<circle cx="-143" cy="64" r="50"/>
	<circle cx="-126" cy="47" r="50"/>
	<circle cx="-136" cy="46" r="50"/>
	<circle cx="-149" cy="71" r="50"/>
	<circle cx="-150" cy="50" r="50"/>
	<circle cx="-156" cy="59" r="50"/>
	<circle cx="-156" cy="43" r="50"/>
	<circle cx="-138" cy="-84" r="50"/>
	<circle cx="-145" cy="-109" r="50"/>
	<circle cx="-149" cy="-96" r="50"/>
	<circle cx="-150" cy="-82" r="50"/>
	<circle cx="-171" cy="-75" r="50"/>
	<circle cx="-162" cy="70" r="50"/>
	<circle cx="-178" cy="41" r="50"/>
	<circle cx="-178" cy="46" r="50"/>
	<circle cx="-176" cy="51" r="50"/>
	<circle cx="-177" cy="44" r="50"/>
	<circle cx="-191" cy="35" r="50"/>
	<circle cx="-193" cy="25" r="50"/>
	<circle cx="-206" cy="38" r="50"/>
	<circle cx="-172" cy="-74" r="50"/>
	<circle cx="-178" cy="-81" r="50"/>
	<circle cx="-173" cy="-71" r="50"/>
	<circle cx="-177" cy="-55" r="50"/>
	<circle cx="-176" cy="-74" r="50"/>
	<circle cx="-188" cy="-94" r="50"/>
	<circle cx="-188" cy="-83" r="50"/>
	<circle cx="-196" cy="-86" r="50"/>
	<circle cx="-193" cy="-55" r="50"/>
	<circle cx="-205" cy="-53" r="50"/>
	<circle cx="-196" cy="-57" r="50"/>
	<circle cx="-201" cy="-60" r="50"/>
	<circle cx="-204" cy="-41" r="50"/>
	<circle cx="-208" cy="-62" r="50"/>
	<circle cx="-199" cy="-61" r="50"/>
	<circle cx="-197" cy="7" r="50"/>
	<circle cx="-211" cy="33" r="50"/>
	<circle cx="-204" cy="13" r="50"/>
	<circle cx="-202" cy="2" r="50"/>
	<circle cx="-208" cy="42" r="50"/>
	<circle cx="-213" cy="19" r="50"/>
	<circle cx="-216" cy="19" r="50"/>
	<circle cx="-208" cy="11" r="50"/>
	<circle cx="-203" cy="22" r="50"/>
	<circle cx="-217" cy="15" r="50"/>
	<circle cx="-199" cy="-10" r="50"/>
	<circle cx="-214" cy="-9" r="50"/>
	<circle cx="-211" cy="-18" r="50"/>
	<circle cx="-202" cy="-19" r="50"/>
	<circle cx="-208" cy="-19" r="50"/>
	<circle cx="-208" cy="-36" r="50"/>
	<circle cx="-211" cy="-32" r="50"/>
	<circle cx="-217" cy="-31" r="50"/>
	<circle cx="-206" cy="-33" r="50"/>
	<circle cx="-223" cy="-15" r="50"/>
	<circle cx="-219" cy="-23" r="50"/>
	<circle cx="-227" cy="-47" r="50"/>
	<circle cx="-231" cy="-16" r="50"/>
	<circle cx="-232" cy="-22" r="50"/>
	<circle cx="-236" cy="-16" r="50"/>
	<circle cx="-227" cy="-14" r="50"/>
</g>
<g id="cluster-1" fill="red">
	<circle cx="190" cy="-28" r="9"/>
	<circle cx="193" cy="-33" r="9"/>
	<circle cx="169" cy="-24" r="9"/>
	<circle cx="177" cy="11" r="9"/>
	<circle cx="172" cy="13" r="9"/>
	<circle cx="160" cy="10" r="9"/>
	<circle cx="155" cy="-60" r="9"/>
	<circle cx="170" cy="-67" r="9"/>
	<circle cx="162" cy="-55" r="9"/>
	<circle cx="152" cy="-53" r="9"/>
	<circle cx="170" cy="-61" r="9"/>
	<circle cx="185" cy="-29" r="9"/>
	<circle cx="195" cy="-51" r="9"/>
	<circle cx="199" cy="-29" r="9"/>
	<circle cx="199" cy="-39" r="9"/>
	<circle cx="195" cy="5" r="9"/>
	<circle cx="193" cy="-7" r="9"/>
	<circle cx="188" cy="15" r="9"/>
	<circle cx="176" cy="0" r="9"/>
	<circle cx="173" cy="-47" r="9"/>
	<circle cx="183" cy="-40" r="9"/>
	<circle cx="150" cy="-59" r="9"/>
	<circle cx="180" cy="-62" r="9"/>
	<circle cx="184" cy="-28" r="9"/>
	<circle cx="169" cy="-49" r="9"/>
	<circle cx="193" cy="-17" r="9"/>
	<circle cx="164" cy="22" r="9"/>
	<circle cx="180" cy="22" r="9"/>
	<circle cx="151" cy="7" r="9"/>
	<circle cx="145" cy="-57" r="9"/>
	<circle cx="180" cy="36" r="9"/>
	<circle cx="136" cy="30" r="9"/>
	<circle cx="167" cy="26" r="9"/>
	<circle cx="167" cy="39" r="9"/>
	<circle cx="170" cy="44" r="9"/>
	<circle cx="140" cy="30" r="9"/>
	<circle cx="155" cy="44" r="9"/>
	<circle cx="127" cy="29" r="9"/>
	<circle cx="137" cy="43" r="9"/>
	<circle cx="116" cy="-75" r="9"/>
	<circle cx="141" cy="-87" r="9"/>
	<circle cx="135" cy="-74" r="9"/>
	<circle cx="136" cy="-77" r="9"/>
	<circle cx="134" cy="-74" r="9"/>
	<circle cx="129" cy="-66" r="9"/>
	<circle cx="125" cy="-72" r="9"/>
	<circle cx="141" cy="-78" r="9"/>
	<circle cx="119" cy="64" r="9"/>
	<circle cx="108" cy="44" r="9"/>
	<circle cx="109" cy="61" r="9"/>
	<circle cx="94" cy="51" r="9"/>
	<circle cx="117" cy="46" r="9"/>
	<circle cx="121" cy="64" r="9"/>
	<circle cx="108" cy="41" r="9"/>
	<circle cx="94" cy="37" r="9"/>
	<circle cx="95" cy="57" r="9"/>
	<circle cx="85" cy="42" r="9"/>
	<circle cx="103" cy="76" r="9"/>
	<circle cx="87" cy="-94" r="9"/>
	<circle cx="111" cy="-98" r="9"/>
	<circle cx="98" cy="-92" r="9"/>
	<circle cx="99" cy="-102" r="9"/>
	<circle cx="106" cy="-118" r="9"/>
	<circle cx="107" cy="-120" r="9"/>
	<circle cx="93" cy="-79" r="9"/>
	<circle cx="103" cy="-86" r="9"/>
	<circle cx="80" cy="54" r="9"/>
	<circle cx="63" cy="65" r="9"/>
	<circle cx="65" cy="76" r="9"/>
	<circle cx="59" cy="81" r="9"/>
	<circle cx="47" cy="58" r="9"/>
	<circle cx="56" cy="-107" r="9"/>
	<circle cx="60" cy="-115" r="9"/>
	<circle cx="57" cy="-102" r="9"/>
	<circle cx="53" cy="-124" r="9"/>
	<circle cx="55" cy="-98" r="9"/>
	<circle cx="58" cy="-114" r="9"/>
	<circle cx="45" cy="86" r="9"/>
	<circle cx="46" cy="84" r="9"/>
	<circle cx="31" cy="60" r="9"/>
	<circle cx="25" cy="69" r="9"/>
	<circle cx="22" cy="88" r="9"/>
	<circle cx="34" cy="92" r="9"/>
	<circle cx="17" cy="75" r="9"/>
	<circle cx="21" cy="96" r="9"/>
	<circle cx="15" cy="-102" r="9"/>
	<circle cx="47" cy="-136" r="9"/>
	<circle cx="32" cy="-114" r="9"/>
	<circle cx="16" cy="-103" r="9"/>
	<circle cx="37" cy="-136" r="9"/>
	<circle cx="14" cy="-105" r="9"/>
	<circle cx="38" cy="-122" r="9"/>
	<circle cx="6" cy="-118" r="9"/>
	<circle cx="1" cy="89" r="9"/>
	<circle cx="-1" cy="92" r="9"/>
	<circle cx="-5" cy="66" r="9"/>
	<circle cx="-21" cy="80" r="9"/>
	<circle cx="-16" cy="85" r="9"/>
	<circle cx="-23" cy="98" r="9"/>
	<circle cx="-9" cy="-102" r="9"/>
	<circle cx="-19" cy="-136" r="9"/>
	<circle cx="-14" cy="-105" r="9"/>
	<circle cx="-22" cy="-103" r="9"/>
	<circle cx="-10" cy="-104" r="9"/>
	<circle cx="-41" cy="-105" r="9"/>
	<circle cx="-36" cy="-118" r="9"/>
	<circle cx="-36" cy="71" r="9"/>
	<circle cx="-36" cy="74" r="9"/>
	<circle cx="-61" cy="63" r="9"/>
	<circle cx="-52" cy="95" r="9"/>
	<circle cx="-65" cy="72" r="9"/>
	<circle cx="-59" cy="87" r="9"/>
	<circle cx="-58" cy="78" r="9"/>
	<circle cx="-44" cy="-111" r="9"/>
	<circle cx="-51" cy="-105" r="9"/>
	<circle cx="-46" cy="-121" r="9"/>
	<circle cx="-63" cy="-114" r="9"/>
	<circle cx="-61" cy="-136" r="9"/>
	<circle cx="-66" cy="-115" r="9"/>
	<circle cx="-85" cy="-112" r="9"/>
	<circle cx="-76" cy="56" r="9"/>
	<circle cx="-70" cy="62" r="9"/>
	<circle cx="-99" cy="91" r="9"/>
	<circle cx="-98" cy="64" r="9"/>
	<circle cx="-107" cy="81" r="9"/>
	<circle cx="-111" cy="79" r="9"/>
	<circle cx="-112" cy="58" r="9"/>
	<circle cx="-113" cy="60" r="9"/>
	<circle cx="-98" cy="-102" r="9"/>
	<circle cx="-103" cy="-120" r="9"/>
	<circle cx="-106" cy="-125" r="9"/>
	<circle cx="-111" cy="-115" r="9"/>
	<circle cx="-132" cy="-116" r="9"/>
	<circle cx="-115" cy="-87" r="9"/>
	<circle cx="-123" cy="-113" r="9"/>
	<circle cx="-131" cy="-104" r="9"/>
	<circle cx="-128" cy="-124" r="9"/>
	<circle cx="-120" cy="-115" r="9"/>
	<circle cx="-125" cy="68" r="9"/>
	<circle cx="-143" cy="64" r="9"/>
	<circle cx="-126" cy="47" r="9"/>
	<circle cx="-136" cy="46" r="9"/>
	<circle cx="-149" cy="71" r="9"/>
	<circle cx="-150" cy="50" r="9"/>
	<circle cx="-156" cy="59" r="9"/>
	<circle cx="-156" cy="43" r="9"/>
	<circle cx="-138" cy="-84" r="9"/>
	<circle cx="-145" cy="-109" r="9"/>
	<circle cx="-149" cy="-96" r="9"/>
	<circle cx="-150" cy="-82" r="9"/>
	<circle cx="-171" cy="-75" r="9"/>
	<circle cx="-162" cy="70" r="9"/>
	<circle cx="-178" cy="41" r="9"/>
	<circle cx="-178" cy="46" r="9"/>
	<circle cx="-176" cy="51" r="9"/>
	<circle cx="-177" cy="44" r="9"/>
	<circle cx="-191" cy="35" r="9"/>
	<circle cx="-193" cy="25" r="9"/>
	<circle cx="-206" cy="38" r="9"/>
	<circle cx="-172" cy="-74" r="9"/>
	<circle cx="-178" cy="-81" r="9"/>
	<circle cx="-173" cy="-71" r="9"/>
	<circle cx="-177" cy="-55" r="9"/>
	<circle cx="-176" cy="-74" r="9"/>
	<circle cx="-188" cy="-94" r="9"/>
	<circle cx="-188" cy="-83" r="9"/>
	<circle cx="-196" cy="-86" r="9"/>
	<circle cx="-193" cy="-55" r="9"/>
	<circle cx="-205" cy="-53" r="9"/>
	<circle cx="-196" cy="-57" r="9"/>
	<circle cx="-201" cy="-60" r="9"/>
	<circle cx="-204" cy="-41" r="9"/>
	<circle cx="-208" cy="-62" r="9"/>
	<circle cx="-199" cy="-61" r="9"/>
	<circle cx="-197" cy="7" r="9"/>
	<circle cx="-211" cy="33" r="9"/>
	<circle cx="-204" cy="13" r="9"/>
	<circle cx="-202" cy="2" r="9"/>
	<circle cx="-208" cy="42" r="9"/>
	<circle cx="-213" cy="19" r="9"/>
	<circle cx="-216" cy="19" r="9"/>
	<circle cx="-208" cy="11" r="9"/>
	<circle cx="-203" cy="22" r="9"/>
	<circle cx="-217" cy="15" r="9"/>
	<circle cx="-199" cy="-10" r="9"/>
	<circle cx="-214" cy="-9" r="9"/>
	<circle cx="-211" cy="-18" r="9"/>
	<circle cx="-202" cy="-19" r="9"/>
	<circle cx="-208" cy="-19" r="9"/>
	<circle cx="-208" cy="-36" r="9"/>
	<circle cx="-211" cy="-32" r="9"/>
	<circle cx="-217" cy="-31" r="9"/>
	<circle cx="-206" cy="-33" r="9"/>
	<circle cx="-223" cy="-15" r="9"/>
	<circle cx="-219" cy="-23" r="9"/>
	<circle cx="-227" cy="-47" r="9"/>
	<circle cx="-231" cy="-16" r="9"/>
	<circle cx="-232" cy="-22" r="9"/>
	<circle cx="-236" cy="-16" r="9"/>
	<circle cx="-227" cy="-14" r="9"/>
</g>
</svg>