<svg width="1200" height="1200" transform="translate(500 400)">
<rect x="-500" y="-400" width="1200" height="1200" fill="white"/>
<g id="cluster-0" fill="black">
	<circle cx="-375" cy="-279" r="12"/>
	<circle cx="0" cy="-153" r="12"/>
	<circle cx="-122" cy="82" r="12"/>
	<circle cx="-228" cy="100" r="12"/>
	<circle cx="-192" cy="-66" r="12"/>
	<circle cx="-20" cy="75" r="12"/>
	<circle cx="-346" cy="65" r="12"/>
	<circle cx="141" cy="40" r="12"/>
	<circle cx="-257" cy="-128" r="12"/>
	<circle cx="-299" cy="-243" r="12"/>
	<circle cx="-258" cy="-176" r="12"/>
	<circle cx="-282" cy="-136" r="12"/>
	<circle cx="-298" cy="-260" r="12"/>
	<circle cx="-279" cy="-151" r="12"/>
	<circle cx="-296" cy="-193" r="12"/>
	<circle cx="-334" cy="-120" r="12"/>
	<circle cx="-320" cy="-166" r="12"/>
	<circle cx="-347" cy="-233" r="12"/>
	<circle cx="-369" cy="-214" r="12"/>
	<circle cx="-346" cy="-262" r="12"/>
	<circle cx="-291" cy="-174" r="12"/>
	<circle cx="-228" cy="-218" r="12"/>
	<circle cx="-325" cy="-209" r="12"/>
	<circle cx="-326" cy="-252" r="12"/>
	<circle cx="-379" cy="-133" r="12"/>
	<circle cx="-278" cy="-220" r="12"/>
	<circle cx="-283" cy="-267" r="12"/>
	<circle cx="-123" cy="-113" r="12"/>
	<circle cx="-283" cy="93" r="12"/>
	<circle cx="-152" cy="-11" r="12"/>
	<circle cx="-164" cy="-56" r="12"/>
	<circle cx="-145" cy="66" r="12"/>
	<circle cx="-241" cy="-14" r="12"/>
	<circle cx="-253" cy="-53" r="12"/>
	<circle cx="-289" cy="-20" r="12"/>
	<circle cx="-308" cy="75" r="12"/>
	<circle cx="-213" cy="-108" r="12"/>
	<circle cx="-252" cy="64" r="12"/>
	<circle cx="-212" cy="-36" r="12"/>
	<circle cx="-198" cy="101" r="12"/>
	<circle cx="-319" cy="-56" r="12"/>
	<circle cx="-172" cy="-48" r="12"/>
	<circle cx="-131" cy="-24" r="12"/>
	<circle cx="-192" cy="-73" r="12"/>
	<circle cx="-124" cy="-79" r="12"/>
	<circle cx="-281" cy="-35" r="12"/>
	<circle cx="-181" cy="80" r="12"/>
</g>
<g id="cluster-1" fill="black">
	<circle cx="518" cy="659" r="12"/>
	<circle cx="248" cy="345" r="12"/>
	<circle cx="571" cy="-35" r="12"/>
	<circle cx="583" cy="-55" r="12"/>
	<circle cx="512" cy="91" r="12"/>
	<circle cx="119" cy="443" r="12"/>
	<circle cx="361" cy="366" r="12"/>
	<circle cx="240" cy="662" r="12"/>
	<circle cx="218" cy="311" r="12"/>
	<circle cx="222" cy="259" r="12"/>
	<circle cx="155" cy="322" r="12"/>
	<circle cx="451" cy="397" r="12"/>
	<circle cx="455" cy="361" r="12"/>
	<circle cx="539" cy="431" r="12"/>
	<circle cx="531" cy="362" r="12"/>
	<circle cx="478" cy="435" r="12"/>
	<circle cx="503" cy="356" r="12"/>
	<circle cx="483" cy="354" r="12"/>
	<circle cx="530" cy="406" r="12"/>
	<circle cx="480" cy="352" r="12"/>
	<circle cx="499" cy="395" r="12"/>
	<circle cx="470" cy="378" r="12"/>
	<circle cx="515" cy="436" r="12"/>
	<circle cx="546" cy="435" r="12"/>
	<circle cx="509" cy="422" r="12"/>
	<circle cx="514" cy="418" r="12"/>
	<circle cx="493" cy="368" r="12"/>
	<circle cx="493" cy="378" r="12"/>
	<circle cx="484" cy="382" r="12"/>
	<circle cx="503" cy="364" r="12"/>
	<circle cx="502" cy="404" r="12"/>
</g>
<g id="cluster-2" fill="black">
	<circle cx="-310" cy="675" r="12"/>
	<circle cx="-129" cy="249" r="12"/>
	<circle cx="-126" cy="310" r="12"/>
	<circle cx="-173" cy="328" r="12"/>
	<circle cx="-44" cy="369" r="12"/>
	<circle cx="-156" cy="241" r="12"/>
	<circle cx="-181" cy="309" r="12"/>
	<circle cx="-43" cy="250" r="12"/>
	<circle cx="-125" cy="377" r="12"/>
	<circle cx="-72" cy="352" r="12"/>
	<circle cx="-64" cy="279" r="12"/>
	<circle cx="-4" cy="206" r="12"/>
	<circle cx="-141" cy="245" r="12"/>
	<circle cx="-194" cy="321" r="12"/>
	<circle cx="-59" cy="388" r="12"/>
	<circle cx="-15" cy="303" r="12"/>
	<circle cx="-109" cy="396" r="12"/>
	<circle cx="-166" cy="266" r="12"/>
	<circle cx="-32" cy="306" r="12"/>
	<circle cx="-24" cy="317" r="12"/>
	<circle cx="-66" cy="278" r="12"/>
</g>
</svg>
